<?xml version="1.0" standalone="no"?><!DOCTYPE svg PUBLIC "-//W3C//DTD SVG 1.1//EN" "http://www.w3.org/Graphics/SVG/1.1/DTD/svg11.dtd"><svg t="1498553212307" class="icon" style="" viewBox="0 0 1024 1024" version="1.1" xmlns="http://www.w3.org/2000/svg" p-id="2920" xmlns:xlink="http://www.w3.org/1999/xlink" width="32" height="32"><defs><style type="text/css"></style></defs><path d="M759.885105 55.775304l-38.021476 0L302.03813 55.775304l-68.423102 0 0 68.325132 0 836.276525 9.761718 0 58.660361 0 419.824476 0 56.243213 0 12.178866 0 0-904.602679L759.885105 55.774281zM510.741793 900.510478c-24.952297 0-45.179796-20.227694-45.179796-45.178969 0-24.949228 20.227499-45.177945 45.179796-45.177945s45.181843 20.227694 45.181843 45.177945C555.923637 880.283808 535.695114 900.510478 510.741793 900.510478zM302.03813 751.773945 302.03813 124.099413 721.862606 124.099413l0 627.674533L302.03813 751.773945z" p-id="2921"></path></svg>