<?xml version="1.0" standalone="no"?><!DOCTYPE svg PUBLIC "-//W3C//DTD SVG 1.1//EN" "http://www.w3.org/Graphics/SVG/1.1/DTD/svg11.dtd"><svg t="1501572863637" class="icon" style="" viewBox="0 0 1024 1024" version="1.1" xmlns="http://www.w3.org/2000/svg" p-id="6557" xmlns:xlink="http://www.w3.org/1999/xlink" width="32" height="32"><defs><style type="text/css"></style></defs><path d="M423.713234 838.423421c-12.928451 13.440104-33.910321 13.440104-46.832631 0l-10.386558-10.791787-0.041956 0.035815-11.035334-11.553127L306.637796 765.436106c-0.166799-0.184195-0.089028-0.464581-0.255827-0.642636L83.124186 531.101033c-12.945847-13.433964-12.945847-35.214013 0-48.666396l70.242807-72.987314c12.928451-13.446243 33.898041-13.446243 46.832632 0l200.37154 209.728652L821.773206 181.486424c12.928451-13.446243 33.886785-13.446243 46.826491 0l70.242808 72.998571c12.928451 13.428847 12.928451 35.225269 0 48.654117L423.713234 838.423421z" fill="#ffffff" p-id="6558"></path></svg>