<?xml version="1.0" standalone="no"?><!DOCTYPE svg PUBLIC "-//W3C//DTD SVG 1.1//EN" "http://www.w3.org/Graphics/SVG/1.1/DTD/svg11.dtd"><svg t="1513748797274" class="icon" style="" viewBox="0 0 1024 1024" version="1.1" xmlns="http://www.w3.org/2000/svg" p-id="4384" xmlns:xlink="http://www.w3.org/1999/xlink" width="20" height="20"><defs><style type="text/css"></style></defs><path d="M193.728388 838.941479c-3.584 34.23263-52.646012 76.430739-82.006885 76.430739-54.13857 1.992145-90.763636-38.614109-96.336679-76.430739-0.868848-5.923685 0-23.884024 0-23.884024L15.384824 214.748315l178.343564 0 0 600.309139C193.728388 815.057455 194.348994 833.017794 193.728388 838.941479z" p-id="4385"></path><path d="M244.70497 108.556412l0 683.656533c0 63.6928-55.209115 123.15617-55.209115 123.15617l709.110691 0c101.909721-8.508509 110.393406-135.894109 110.393406-135.894109L1008.999952 108.556412 244.70497 108.556412zM907.093333 590.537697l-535.024485 0 0-78.57183 535.024485 0L907.093333 590.537697zM907.093333 456.781576l-535.024485 0 0-70.063321 535.024485 0L907.093333 456.781576zM907.093333 342.133915l-535.024485 0L372.068848 252.962133l535.024485 0L907.093333 342.133915z" p-id="4386"></path></svg>