<?xml version="1.0" standalone="no"?><!DOCTYPE svg PUBLIC "-//W3C//DTD SVG 1.1//EN" "http://www.w3.org/Graphics/SVG/1.1/DTD/svg11.dtd"><svg t="1513748671981" class="icon" style="" viewBox="0 0 1035 1024" version="1.1" xmlns="http://www.w3.org/2000/svg" p-id="3008" xmlns:xlink="http://www.w3.org/1999/xlink" width="20.21484375" height="20"><defs><style type="text/css"></style></defs><path d="M136.192 16.896c144.384 17.92 295.936 37.888 391.68 161.28 156.672-74.752 324.096-67.584 487.424-13.312 4.608 281.088 8.704 561.664 13.312 842.752-221.184-73.728-312.832-68.096-526.848 3.072-148.48-122.368-320-56.32-483.84-6.656l-9.728-857.6c0-20.48 62.464-26.624 62.464 4.096l9.728 679.424c0.512 20.992 62.976 16.896 62.464-5.632l-6.656-807.424z m479.232 381.44c-17.408 11.776-30.72 43.52 2.048 49.664 7.68 1.536 13.824-2.048 29.184-8.192 38.4-15.36 66.048-17.92 108.032-15.872 34.304 2.048 98.816 35.84 124.928 29.696 20.992-4.608 19.968-26.624 5.632-36.352-38.4-26.112-92.672-39.424-140.8-43.008-37.376-2.56-95.744 2.048-129.024 24.064z m-12.288-123.392c-20.48 14.336-36.352 53.76 3.072 60.416 9.728 1.536 16.896-3.072 35.328-10.24 46.08-19.968 80.384-23.552 131.072-21.504 41.472 1.536 121.344 41.472 152.576 33.28 25.088-6.144 23.552-32.768 5.632-44.544-47.104-30.72-113.664-46.08-172.032-49.152-44.544-2.56-115.712 4.096-155.648 31.744z" p-id="3009"></path></svg>