<?xml version="1.0" standalone="no"?><!DOCTYPE svg PUBLIC "-//W3C//DTD SVG 1.1//EN" "http://www.w3.org/Graphics/SVG/1.1/DTD/svg11.dtd"><svg t="1498543070159" class="icon" style="" viewBox="0 0 1024 1024" version="1.1" xmlns="http://www.w3.org/2000/svg" p-id="998" xmlns:xlink="http://www.w3.org/1999/xlink" width="32" height="32"><defs><style type="text/css"></style></defs><path d="M527.470992 137.825019c-195.261158 0-353.551781 158.283979-353.551781 353.536942S332.209835 844.898903 527.470992 844.898903s353.551781-158.283979 353.551781-353.536942S722.73215 137.825019 527.470992 137.825019zM685.136349 616.529705c8.976819 8.969279 8.976819 23.52581 0 32.495088-4.488409 4.488221-10.36448 6.732331-16.247714 6.732331-5.883234 0-11.759305-2.24411-16.248738-6.732331L527.466899 523.858072 402.294924 649.024793c-4.488409 4.488221-10.36448 6.732331-16.247714 6.732331-5.883234 0-11.759305-2.24411-16.247714-6.732331-8.976819-8.969279-8.976819-23.52581 0-32.495088l125.171975-125.166721L369.798472 366.19524c-8.976819-8.969279-8.976819-23.52581 0-32.495088 8.976819-8.976442 23.519634-8.976442 32.496452 0l125.172998 125.167744L652.639897 333.700151c8.976819-8.976442 23.519634-8.976442 32.496452 0 8.976819 8.969279 8.976819 23.52581 0 32.495088L559.964375 491.362984 685.136349 616.529705z" p-id="999" fill="#bfbfbf"></path></svg>