<?xml version="1.0" standalone="no"?><!DOCTYPE svg PUBLIC "-//W3C//DTD SVG 1.1//EN" "http://www.w3.org/Graphics/SVG/1.1/DTD/svg11.dtd"><svg t="1498543160539" class="icon" style="" viewBox="0 0 1024 1024" version="1.1" xmlns="http://www.w3.org/2000/svg" p-id="2142" xmlns:xlink="http://www.w3.org/1999/xlink" width="32" height="32"><defs><style type="text/css"></style></defs><path d="M510.1647 355.317495c-94.088912 0-170.387645 76.287477-170.387645 170.390715s76.298733 170.388668 170.387645 170.388668c94.089935 0 170.388668-76.28543 170.388668-170.388668S604.255659 355.317495 510.1647 355.317495zM510.1647 634.136711c-59.902298 0-108.428501-48.541553-108.428501-108.429525 0-59.871599 48.526203-108.428501 108.428501-108.428501 59.900252 0 108.429525 48.556902 108.429525 108.428501C618.594225 585.596182 570.065975 634.136711 510.1647 634.136711zM959.30914 508.191254c0-0.437975-0.061398-0.862647-0.061398-1.318018-0.028653-0.23843-0.059352-0.468674-0.059352-0.693802-0.029676-0.319272-0.061398-0.635473-0.121773-0.968048-0.029676-0.363274-0.059352-0.740874-0.118704-1.105171l0-0.149403c-1.121544-8.381901-4.356214-16.23373-9.378601-22.282492-28.562523-40.966017-62.535265-77.449953-97.055476-110.726847-74.42506-71.77879-159.526273-131.801838-253.464759-155.974377-54.273091-13.94664-108.912525-14.551414-163.490561-2.721994-49.617048 10.724249-97.477079 33.081443-142.252865 60.763922-70.098521 43.35339-134.083811 103.132892-189.871395 170.115446-10.348696 12.419867-20.60427 25.065885-29.982872 38.543851-12.494569 17.940604-12.494569 39.163975 0 57.072857 28.559453 40.96397 62.535265 77.44893 97.086176 110.75857 74.423013 71.746044 159.494551 131.786489 253.43406 155.942655 54.305837 13.976316 108.942201 14.567787 163.520237 2.753717 49.615001-10.741645 97.478102-33.083489 142.252865-60.793598 70.069869-43.37181 134.083811-103.121636 189.872419-170.116469 10.346649-12.421914 20.574594-25.065885 29.980825-38.544875 4.994758-6.049786 8.259104-13.871939 9.350972-22.280446l0-0.152473c0.060375-0.36225 0.118704-0.741897 0.118704-1.102101 0.061398-0.332575 0.121773-0.651846 0.121773-0.971118 0.029676-0.225127 0.059352-0.451278 0.059352-0.665149 0.032746-0.421602 0.061398-0.876973 0.061398-1.312902 0.061398-0.698918 0.061398-1.364067 0.061398-2.044566S959.34291 508.885056 959.30914 508.191254zM858.082668 557.14213c-52.27969 54.228065-170.115446 200.913892-332.428182 200.913892-156.109454 0-281.508465-113.755834-356.630397-189.571566-56.515155-56.964386-33.429367-63.956637-8.077979-97.521081 64.895009-85.87381 198.221574-208.583572 364.707352-208.583572 159.982668 0 301.811884 163.702386 330.853313 196.619076C885.5523 491.914546 910.359288 502.94067 858.082668 557.14213z" p-id="2143" fill="#bfbfbf"></path></svg>