<?xml version="1.0" standalone="no"?><!DOCTYPE svg PUBLIC "-//W3C//DTD SVG 1.1//EN" "http://www.w3.org/Graphics/SVG/1.1/DTD/svg11.dtd"><svg t="1498543137420" class="icon" style="" viewBox="0 0 1024 1024" version="1.1" xmlns="http://www.w3.org/2000/svg" p-id="1898" xmlns:xlink="http://www.w3.org/1999/xlink" width="32" height="32"><defs><style type="text/css"></style></defs><path d="M941.797 495.847c-8.664-10.61-214.943-259.979-429.53-260.437-213.852 0-420.837 248.069-429.543 258.636l-14.275 17.3 14.209 17.003c8.663 10.612 214.1 260.24 428.133 260.24 226.427 0 421.305-247.673 430.016-258.238l14.744-17.228-13.753-17.275zM524.745 676.833c-42.76 0-81.965-18.499-112.135-48.901-30.152-30.344-46.709-71.907-46.614-114.737 0.189-88.262 72.010-160.692 160.101-160.692 88.591 0.205 159.313 73.24 159.142 161.682-0.186 88.271-77.407 162.647-160.494 162.647zM526.3 407.279c-57.813 0-104.792 47.009-104.912 104.797-0.069 28.066 10.776 54.471 30.521 74.351 19.655 19.787 44.857 30.716 72.674 30.852 55.27-0.191 105.157-47.089 105.264-104.771 0.135-57.886-45.831-105.109-103.547-105.229z" p-id="1899" fill="#bfbfbf"></path></svg>