<?xml version="1.0" standalone="no"?><!DOCTYPE svg PUBLIC "-//W3C//DTD SVG 1.1//EN" "http://www.w3.org/Graphics/SVG/1.1/DTD/svg11.dtd"><svg t="1521423598022" class="icon" style="" viewBox="0 0 1024 1024" version="1.1" xmlns="http://www.w3.org/2000/svg" p-id="2712" xmlns:xlink="http://www.w3.org/1999/xlink" width="32" height="32"><defs><style type="text/css"></style></defs><path d="M512 1024a409.6 409.6 0 0 1-409.6-409.6V409.6h819.2v204.8a409.6 409.6 0 0 1-409.6 409.6zM238.933333 546.133333v68.266667a273.066667 273.066667 0 0 0 546.133334 0V546.133333zM853.333333 341.333333H716.8a204.8 204.8 0 0 0-409.6 0H170.666667a341.333333 341.333333 0 0 1 682.666666 0z" fill="#272536" p-id="2713"></path><path d="M443.733333 614.4l136.533334 0 0 204.8-136.533334 0 0-204.8Z" fill="#272536" p-id="2714"></path></svg>